#!OML:ASF F:\VICON\USERDATA\INSTALL\rory3\rory3.ASF
:FULLY-SPECIFIED
:DEGREES
533
root 0.934655 29.1777 -4.14165 -168.664 -42.4212 -181.96
lowerback 5.31724 -0.267082 -1.65551
upperback -0.250332 -0.416524 2.02753
thorax -3.21471 -0.172316 3.05822
lowerneck -16.1841 4.17284 -9.29736
upperneck 39.4739 7.2346 -1.30784
head 16.7872 0.377245 2.06821
rclavicle 4.41302e-014 1.74931e-014
rhumerus -33.3077 -7.70086 -77.9864
rradius 28.0374
rwrist 21.8617
rhand -25.5563 3.39005
rfingers 7.12502
rthumb 0.974279 -26.5875
lclavicle 4.41302e-014 1.74931e-014
lhumerus -32.0483 8.40595 82.6447
lradius 40.9447
lwrist -0.97202
lhand -14.5457 26.7251
lfingers 7.12502
lthumb 11.6029 56.3839
rfemur -22.8162 10.2183 13.5439
rtibia 30.2984
rfoot -11.4048 6.75525
rtoes 18.3695
lfemur -18.0465 -14.7 -15.1153
ltibia 20.4161
lfoot -10.4637 -22.9593
ltoes -9.2236
534
root 0.967604 29.1816 -4.16951 -168.507 -43.46 -181.941
lowerback 5.09745 -0.322552 -1.57864
upperback -0.0771684 -0.485786 2.18884
thorax -2.90717 -0.215088 3.18321
lowerneck -16.2878 4.21427 -9.21955
upperneck 39.3924 7.45589 -1.64469
head 16.7917 0.446856 1.95046
rclavicle 9.0447e-014 -3.97569e-015
rhumerus -32.6783 -7.24072 -77.8579
rradius 27.9427
rwrist 21.4334
rhand -24.6913 3.20702
rfingers 7.12502
rthumb 1.80976 -26.765
lclavicle 9.0447e-014 -3.97569e-015
lhumerus -31.8656 9.32049 82.4921
lradius 40.7392
lwrist -1.08327
lhand -15.0701 26.1724
lfingers 7.12502
lthumb 11.0972 55.859
rfemur -22.753 9.69743 13.8355
rtibia 30.2171
rfoot -11.6665 6.34548
rtoes 18.4826
lfemur -18.5242 -14.6105 -14.9179
ltibia 20.6282
lfoot -10.7333 -22.9028
ltoes -11.8797
535
root 1.00296 29.1824 -4.20697 -168.66 -44.4258 -181.659
lowerback 5.10345 -0.248071 -1.37912
upperback -0.0100612 -0.376166 2.30434
thorax -2.84911 -0.165842 3.18169
lowerneck -16.278 4.14626 -9.19173
upperneck 39.4587 7.33662 -1.55805
head 16.8253 0.421615 1.9673
rclavicle 8.01102e-014 -2.94201e-014
rhumerus -32.4043 -7.26399 -77.6422
rradius 27.8344
rwrist 21.324
rhand -23.6749 3.02919
rfingers 7.12502
rthumb 2.7913 -26.9323
lclavicle 8.01102e-014 -2.94201e-014
lhumerus -31.9556 9.83109 82.1662
lradius 40.5927
lwrist -1.6071
lhand -15.1861 25.6922
lfingers 7.12502
lthumb 10.9853 55.3847
rfemur -22.5627 9.41932 14.3671
rtibia 30.1408
rfoot -12.0651 5.77854
rtoes 18.0064
lfemur -18.8065 -14.2715 -14.6045
ltibia 20.9633
lfoot -11.4694 -22.1649
ltoes -14.3782
536
root 1.04146 29.1858 -4.24237 -168.632 -45.3566 -181.694
lowerback 5.29994 -0.137844 -1.36382
upperback -0.0499932 -0.228376 2.2672
thorax -3.0105 -0.0897361 3.12564
lowerneck -16.0892 4.08713 -9.00343
upperneck 39.562 7.12528 -1.45035
head 16.8413 0.382471 1.94444
rclavicle 1.72943e-014 -1.59028e-014
rhumerus -32.3983 -7.56337 -77.4308
rradius 27.7777
rwrist 21.5194
rhand -23.2541 2.93889
rfingers 7.12502
rthumb 3.19773 -27.0169
lclavicle 1.72943e-014 -1.59028e-014
lhumerus -32.1203 9.98552 81.82
lradius 40.4598
lwrist -1.6499
lhand -15.3454 26.1331
lfingers 7.12502
lthumb 10.8316 55.8337
rfemur -22.3558 9.10342 14.6548
rtibia 30.056
rfoot -12.3781 5.22917
rtoes 17.4964
lfemur -19.0741 -13.6946 -14.6247
ltibia 21.4005
lfoot -12.1662 -20.8015
ltoes -16.6181
537
root 1.08192 29.1917 -4.27366 -168.525 -46.4001 -181.698
lowerback 5.51362 -0.120984 -1.27575
upperback -0.170632 -0.198753 2.24112
thorax -3.25745 -0.0716444 3.04936
lowerneck -15.9097 4.10337 -8.79687
upperneck 39.7351 7.01838 -1.35388
head 16.8938 0.376685 1.93084
rclavicle 7.11649e-014 5.56597e-015
rhumerus -32.3947 -7.67234 -77.3054
rradius 27.7085
rwrist 21.7694
rhand -23.2318 2.98224
rfingers 7.12502
rthumb 3.21929 -26.9732
lclavicle 7.11649e-014 5.56597e-015
lhumerus -32.3127 10.2387 81.4651
lradius 40.3436
lwrist -1.35769
lhand -15.382 26.296
lfingers 7.12502
lthumb 10.7963 55.9985
rfemur -22.2591 8.91513 14.9212
rtibia 29.9827
rfoot -12.736 4.55951
rtoes 17.8217
lfemur -19.5462 -12.8917 -14.6622
ltibia 21.8906
lfoot -12.6046 -19.5846
ltoes -18.6926
538
root 1.11433 29.1992 -4.28411 -168.37 -47.4815 -181.587
lowerback 5.62596 -0.106176 -0.848885
upperback -0.257207 -0.150753 2.23155
thorax -3.41393 -0.0530043 2.79606
lowerneck -15.8846 4.03336 -8.59544
upperneck 39.8684 6.85585 -1.35034
head 16.9755 0.339215 1.87241
rclavicle 3.55825e-014 4.77083e-015
rhumerus -32.1782 -7.52792 -77.154
rradius 27.6008
rwrist 21.6274
rhand -23.3578 2.85656
rfingers 7.12502
rthumb 3.09757 -27.1007
lclavicle 3.55825e-014 4.77083e-015
lhumerus -32.327 10.5375 81.2836
lradius 40.2196
lwrist -1.41175
lhand -15.4085 26.5416
lfingers 7.12502
lthumb 10.7707 56.2454
rfemur -22.2973 8.47167 15.2308
rtibia 29.9067
rfoot -13.0253 4.03638
rtoes 17.8522
lfemur -20.1822 -12.0348 -14.7212
ltibia 22.4296
lfoot -13.1215 -18.1197
ltoes -21.2537
539
root 1.14456 29.2047 -4.27792 -167.97 -48.5103 -181.694
lowerback 5.60214 -0.0668108 -0.499261
upperback -0.285813 -0.0754203 2.25263
thorax -3.43446 -0.0218705 2.61433
lowerneck -16.0003 3.92571 -8.69826
upperneck 40.0112 6.78161 -1.38791
head 17.0893 0.282822 1.86647
rclavicle 3.16068e-014 -2.62396e-014
rhumerus -31.7696 -7.37869 -76.7838
rradius 27.5013
rwrist 21.2871
rhand -23.3487 2.94492
rfingers 7.12502
rthumb 3.10631 -27.0122
lclavicle 3.16068e-014 -2.62396e-014
lhumerus -32.2781 10.7769 81.3727
lradius 40.2245
lwrist -1.56718
lhand -15.549 27.4002
lfingers 7.12502
lthumb 10.6352 57.1111
rfemur -22.418 7.86574 15.3327
rtibia 29.7684
rfoot -13.185 3.70729
rtoes 18.1734
lfemur -20.9232 -11.184 -15.0222
ltibia 23.0602
lfoot -13.5633 -16.4584
ltoes -23.4338
540
root 1.18571 29.2062 -4.30953 -167.98 -49.4021 -181.647
lowerback 5.68248 0.000290765 -0.602594
upperback -0.241547 0.0082176 2.36929
thorax -3.43827 0.0211552 2.7869
lowerneck -15.9238 3.86171 -8.74391
upperneck 40.07 6.71239 -1.41504
head 17.1077 0.246735 1.85019
rclavicle 7.15625e-015 1.27222e-014
rhumerus -31.4524 -7.21492 -76.53
rradius 27.4027
rwrist 20.8005
rhand -23.5569 3.18839
rfingers 7.12502
rthumb 2.90529 -26.7716
lclavicle 7.15625e-015 1.27222e-014
lhumerus -32.3934 10.984 81.3586
lradius 40.2929
lwrist -1.62187
lhand -15.7148 28.2602
lfingers 7.12502
lthumb 10.4753 57.9792
rfemur -22.1908 7.90456 15.6332
rtibia 29.5551
rfoot -13.5879 2.92467
rtoes 18.3069
lfemur -21.2799 -10.0817 -15.2403
ltibia 23.6284
lfoot -13.8394 -14.935
ltoes -24.8895
541
root 1.22419 29.2108 -4.3774 -168.342 -50.0866 -181.551
lowerback 5.83688 0.159906 -1.05231
upperback -0.110292 0.190594 2.47147
thorax -3.4013 0.118316 3.13146
lowerneck -15.981 3.80137 -8.92194
upperneck 40.1623 6.60615 -1.12123
head 17.1499 0.222923 1.99972
rclavicle 3.83654e-014 -1.74931e-014
rhumerus -31.3425 -7.28697 -76.3558
rradius 27.3064
rwrist 20.2475
rhand -24.0871 3.45698
rfingers 7.12502
rthumb 2.39321 -26.5093
lclavicle 3.83654e-014 -1.74931e-014
lhumerus -32.5359 11.195 81.158
lradius 40.2633
lwrist -1.7606
lhand -15.7998 28.7852
lfingers 7.12502
lthumb 10.3933 58.5083
rfemur -21.612 8.41975 16.0251
rtibia 29.3455
rfoot -14.1356 1.89699
rtoes 18.2433
lfemur -21.2307 -8.86247 -15.5026
ltibia 24.2629
lfoot -14.4805 -12.857
ltoes -26.7113
542
root 1.21074 29.2333 -4.44659 -167.351 -51.8608 -182.279
lowerback 4.66189 -0.119306 -1.27339
upperback -0.0510495 -0.192937 2.43507
thorax -2.65537 -0.0769211 3.24051
lowerneck -16.3679 3.72884 -9.57241
upperneck 40.2544 6.70538 -0.78628
head 17.2499 0.214226 2.29523
rclavicle -7.11649e-014 0
rhumerus -31.1744 -7.37643 -76.0401
rradius 27.2909
rwrist 20.0647
rhand -24.1152 3.33069
rfingers 7.12502
rthumb 2.36615 -26.6359
lclavicle -7.11649e-014 0
lhumerus -32.6429 11.5258 80.9157
lradius 40.0965
lwrist -1.9171
lhand -15.6978 28.5055
lfingers 7.12502
lthumb 10.4917 58.2237
rfemur -21.3897 7.03266 15.9457
rtibia 29.1233
rfoot -14.558 1.7093
rtoes 18.3907
lfemur -21.9037 -7.87133 -16.3355
ltibia 24.9023
lfoot -14.7723 -11.2716
ltoes -26.6166
543
root 1.24084 29.2405 -4.45266 -166.986 -52.9177 -182.56
lowerback 4.82992 -0.131954 -1.14452
upperback -0.0990091 -0.202176 2.42086
thorax -2.79899 -0.081063 3.15538
lowerneck -16.2462 3.7122 -9.38859
upperneck 40.1218 6.7765 -1.171
head 17.1801 0.236777 2.10152
rclavicle 1.33186e-014 -1.43125e-014
rhumerus -30.9732 -7.492 -75.5394
rradius 27.4862
rwrist 20.6283
rhand -23.5455 2.86272
rfingers 7.12502
rthumb 2.91629 -27.0971
lclavicle 1.33186e-014 -1.43125e-014
lhumerus -32.7007 11.9259 80.7157
lradius 39.7818
lwrist -1.89942
lhand -15.5558 27.0748
lfingers 7.12502
lthumb 10.6287 56.786
rfemur -21.3089 6.34701 16.0167
rtibia 28.9031
rfoot -14.6553 1.39921
rtoes 18.0231
lfemur -22.3776 -6.63949 -16.964
ltibia 25.6052
lfoot -14.8091 -8.9487
ltoes -25.6778
544
root 1.26433 29.2512 -4.4697 -166.384 -53.9378 -183.249
lowerback 4.92827 -0.1046 -1.31445
upperback -0.0936243 -0.175345 2.31269
thorax -2.85018 -0.0640182 3.13799
lowerneck -16.2943 3.6055 -9.40421
upperneck 40.3018 6.62518 -1.12648
head 17.2991 0.170143 2.10211
rclavicle -1.0138e-013 1.51076e-014
rhumerus -29.9939 -9.38599 -74.9024
rradius 26.6312
rwrist 22.5169
rhand -23.1415 2.84825
rfingers 7.12502
rthumb 3.30641 -27.1059
lclavicle -1.0138e-013 1.51076e-014
lhumerus -32.6966 12.1255 80.5369
lradius 39.464
lwrist -1.91609
lhand -15.2112 25.2763
lfingers 7.12502
lthumb 10.961 54.9701
rfemur -21.1032 5.47816 15.8689
rtibia 28.737
rfoot -14.8328 1.19309
rtoes 17.2426
lfemur -22.6817 -5.42969 -17.878
ltibia 26.3811
lfoot -14.8786 -6.70229
ltoes -22.1528
545
root 1.289 29.2598 -4.4929 -166.29 -54.9994 -183.499
lowerback 5.1886 -0.0812235 -1.29615
upperback -0.0643809 -0.144952 2.27753
thorax -2.96826 -0.0482116 3.09079
lowerneck -16.2483 3.52155 -9.35869
upperneck 40.4513 6.49082 -1.14468
head 17.3831 0.1131 2.06347
rclavicle -2.8625e-014 4.77083e-015
rhumerus -29.9865 -9.9182 -74.5067
rradius 26.7567
rwrist 22.5873
rhand -23.244 2.81411
rfingers 7.12502
rthumb 3.2075 -27.1415
lclavicle -2.8625e-014 4.77083e-015
lhumerus -32.7568 12.2092 80.3561
lradius 39.2955
lwrist -1.9597
lhand -14.8584 24.7484
lfingers 7.12502
lthumb 11.3013 54.4239
rfemur -20.7923 4.78549 16.0502
rtibia 28.7461
rfoot -15.1884 0.882247
rtoes 16.4788
lfemur -22.8801 -4.20763 -18.5265
ltibia 27.1304
lfoot -14.9963 -4.47765
ltoes -17.9214
546
root 1.31154 29.2612 -4.49041 -165.948 -56.1324 -183.088
lowerback 4.76365 -0.175379 -0.587628
upperback -0.278479 -0.226399 2.30513
thorax -2.94747 -0.0979219 2.72353
lowerneck -16.1586 3.55596 -9.26735
upperneck 40.5001 6.54077 -1.21863
head 17.3938 0.139168 2.02283
rclavicle -3.22031e-014 -3.97569e-015
rhumerus -31.2108 -8.94973 -74.2465
rradius 28.4055
rwrist 21.4736
rhand -23.2321 2.61954
rfingers 7.12502
rthumb 3.21892 -27.3359
lclavicle -3.22031e-014 -3.97569e-015
lhumerus -32.8841 12.4295 80.0996
lradius 39.1944
lwrist -1.8114
lhand -14.5827 24.6707
lfingers 7.12502
lthumb 11.5672 54.3315
rfemur -21.4626 4.01451 16.5144
rtibia 28.733
rfoot -15.2081 0.563305
rtoes 16.4684
lfemur -24.1026 -3.16499 -18.8075
ltibia 27.8232
lfoot -14.8432 -1.83717
ltoes -16.2003
547
root 1.33052 29.2604 -4.5278 -164.609 -57.3973 -184.493
lowerback 4.52727 -0.385801 -1.33849
upperback -0.29335 -0.545203 2.23903
thorax -2.80748 -0.24478 3.0985
lowerneck -16.0874 3.58591 -9.23685
upperneck 40.5002 6.59338 -1.24428
head 17.3758 0.16923 2.01566
rclavicle 5.38706e-014 -2.54444e-014
rhumerus -30.215 -8.70231 -73.879
rradius 27.9206
rwrist 21.1419
rhand -23.0328 2.31848
rfingers 7.12502
rthumb 3.41138 -27.634
lclavicle 5.38706e-014 -2.54444e-014
lhumerus -33.0417 12.9202 79.8201
lradius 39.0205
lwrist -1.8626
lhand -14.1204 24.1717
lfingers 7.12502
lthumb 12.0131 53.8069
rfemur -21.3929 3.22332 16.0437
rtibia 28.6769
rfoot -15.3818 0.141138
rtoes 16.7329
lfemur -24.6021 -2.04028 -20.193
ltibia 28.4289
lfoot -14.6733 0.178514
ltoes -15.6135
